# xmcd
#
# Track frame offsets:
#	150
#	2885
#	27581
#	50299
#	82761
#	105209
#	129121
#	145299
#	185294
#	228389
#	246556
#	272299
#
# Disc length: 4002 seconds
#
# Revision: 5
# Processed by: cddbd v1.5.2PL0 Copyright (c) Steve Scherf et al.
# Submitted via: audiograbber 1.83.01
#
DISCID=8e0fa00c
DTITLE=Toto - Live In Poland - 35th Anniversary Tour [CD 1)
DYEAR=2014
DGENRE=Rock
TTITLE0=Intro 13 [live]
TTITLE1=On The Run/Child's Anthem/Goodbye Elenore [medley] [live]
TTITLE2=Goin' Home [live]
TTITLE3=Hydra [live]
TTITLE4=St George And The Dragon [live]
TTITLE5=I'll Be Over You [live]
TTITLE6=It's A Feeling [live]
TTITLE7=Rosanna [live]
TTITLE8=Wings Of Time [live]
TTITLE9=Falling In Between [live]
TTITLE10=I Won't Hold Your Back [live]
TTITLE11=Pamela [live]
EXTD=
EXTT0=
EXTT1=
EXTT2=
EXTT3=
EXTT4=
EXTT5=
EXTT6=
EXTT7=
EXTT8=
EXTT9=
EXTT10=
EXTT11=
PLAYORDER=
